<?xml version="1.0" encoding="utf-8"?>
<!-- Generator: Adobe Illustrator 16.0.0, SVG Export Plug-In . SVG Version: 6.00 Build 0)  -->
<!DOCTYPE svg PUBLIC "-//W3C//DTD SVG 1.1//EN" "http://www.w3.org/Graphics/SVG/1.1/DTD/svg11.dtd">
<svg version="1.1" id="Layer_1" xmlns="http://www.w3.org/2000/svg" xmlns:xlink="http://www.w3.org/1999/xlink" x="0px" y="0px"
	 width="600px" height="600px" viewBox="0 0 600 600" style="enable-background:new 0 0 600 600;" xml:space="preserve">
<g>
	<g style="opacity:0.3;">
		<g>
			<defs>
				<rect id="SVGID_1_" x="67.282" y="573.794" width="463.409" height="23.209"/>
			</defs>
			<clipPath id="SVGID_2_">
				<use xlink:href="#SVGID_1_"  style="overflow:visible;"/>
			</clipPath>
			<path style="clip-path:url(#SVGID_2_);fill:#363842;" d="M530.69,585.396c0,6.407-103.737,11.607-231.705,11.607
				c-127.966,0-231.704-5.2-231.704-11.607s103.738-11.602,231.704-11.602C426.953,573.794,530.69,578.988,530.69,585.396"/>
		</g>
	</g>
	<path style="fill:#FFFFFF;" d="M580.855,295.665c0,154.356-125.137,279.496-279.496,279.496S21.864,450.021,21.864,295.665
		C21.864,141.302,147,16.169,301.359,16.169S580.855,141.302,580.855,295.665"/>
	<path style="fill:#D4E9CC;" d="M578.482,295.665c0,154.356-125.137,279.496-279.497,279.496
		c-154.359,0-279.496-125.14-279.496-279.496c0,81.321,125.136,217.702,279.496,217.702
		C453.346,513.367,578.482,380.207,578.482,295.665"/>
	<path style="fill:#363842;" d="M298.986,585.402c-159.76,0-289.737-129.98-289.737-289.737
		c0-159.764,129.977-289.737,289.737-289.737c159.76,0,289.737,129.974,289.737,289.737
		C588.723,455.422,458.746,585.402,298.986,585.402 M298.986,26.41c-148.469,0-269.255,120.786-269.255,269.255
		S150.517,564.92,298.986,564.92c148.469,0,269.255-120.786,269.255-269.255S447.455,26.41,298.986,26.41"/>
	<path style="fill:#363842;" d="M158.024,274.729c0,10.128-8.21,18.342-18.342,18.342c-10.131,0-18.342-8.214-18.342-18.342
		s8.211-18.342,18.342-18.342C149.814,256.388,158.024,264.602,158.024,274.729"/>
	<path style="fill:#363842;" d="M474.878,274.729c0,10.128-8.215,18.342-18.346,18.342c-10.134,0-18.342-8.214-18.342-18.342
		s8.211-18.342,18.346-18.342C466.663,256.388,474.878,264.602,474.878,274.729"/>
	<path style="fill:#363842;" d="M375.474,405.137c-3.83,0-7.587-1.867-9.844-5.314c-0.434-0.627-12.285-17.555-37.471-17.555
		c-13.278,0-19.839,4.493-28.14,10.181c-8.681,5.947-18.519,12.688-34.937,12.688c-32.604,0-51.462-26.81-52.249-27.95
		c-3.684-5.341-2.34-12.661,3.004-16.349c5.334-3.68,12.618-2.34,16.312,2.954c0.257,0.36,12.958,17.835,32.934,17.835
		c9.138,0,14.388-3.594,21.656-8.574c9.294-6.367,20.858-14.288,41.421-14.288c38.233,0,56.379,27.023,57.133,28.177
		c3.561,5.427,2.04,12.715-3.388,16.268C379.918,404.51,377.681,405.137,375.474,405.137"/>
	
		<path style="fill:none;stroke:#D5E8CD;stroke-width:23.8958;stroke-linecap:round;stroke-linejoin:round;stroke-miterlimit:10;" d="
		M439.688,126.254c12.418,9.854,21.398,18.528,28.446,36.831"/>
	
		<path style="fill:none;stroke:#D5E8CD;stroke-width:23.8958;stroke-linecap:round;stroke-linejoin:round;stroke-miterlimit:10;" d="
		M387.215,95.424c0,0,9.771,3.9,20.93,8.821"/>
</g>
</svg>
