<?xml version="1.0" standalone="no"?>
<!DOCTYPE svg PUBLIC "-//W3C//DTD SVG 20010904//EN"
 "http://www.w3.org/TR/2001/REC-SVG-20010904/DTD/svg10.dtd">
<svg version="1.0" xmlns="http://www.w3.org/2000/svg"
 width="700.000000pt" height="700.000000pt" viewBox="0 0 700.000000 700.000000"
 preserveAspectRatio="xMidYMid meet">
<metadata>
Created by potrace 1.11, written by Peter Selinger 2001-2013
</metadata>
<g transform="translate(0.000000,700.000000) scale(0.100000,-0.100000)"
fill="#000000" stroke="none">
<path d="M3259 6909 c-1291 -83 -2431 -914 -2912 -2124 -150 -376 -223 -741
-234 -1160 -6 -238 4 -398 38 -610 223 -1396 1302 -2512 2689 -2785 355 -69
771 -78 1140 -24 354 51 764 188 1087 363 912 491 1553 1367 1732 2366 52 289
67 636 41 915 -111 1193 -835 2226 -1922 2744 -382 182 -796 288 -1238 316
-182 11 -235 11 -421 -1z m601 -254 c590 -75 1118 -298 1587 -671 128 -102
377 -352 482 -484 371 -467 596 -1008 667 -1601 19 -161 22 -518 5 -669 -69
-615 -279 -1134 -655 -1620 -100 -130 -379 -411 -506 -512 -710 -559 -1587
-790 -2464 -647 -1303 212 -2348 1240 -2579 2539 -38 210 -42 267 -41 560 0
317 13 447 69 690 189 823 717 1554 1432 1982 450 269 869 402 1423 452 94 8
460 -3 580 -19z"/>
<path d="M1530 4017 c-19 -6 -58 -34 -86 -62 -43 -42 -54 -61 -64 -107 -15
-66 -7 -131 20 -176 28 -45 45 -49 114 -24 75 27 138 28 195 2 63 -29 88 -26
111 12 73 120 28 274 -99 340 -58 30 -125 36 -191 15z"/>
<path d="M5200 4017 c-53 -17 -133 -102 -149 -160 -23 -82 2 -190 51 -221 14
-8 32 -6 80 12 78 28 135 28 198 1 69 -30 90 -24 119 35 27 53 32 138 12 190
-34 88 -135 157 -225 155 -28 -1 -67 -6 -86 -12z"/>
<path d="M3093 2670 c-67 -40 -72 -96 -17 -200 50 -96 157 -205 239 -245 51
-25 72 -30 140 -30 71 0 88 4 147 33 131 64 290 277 274 365 -8 42 -47 83 -86
92 -19 4 -61 -4 -123 -24 -193 -62 -298 -62 -438 -1 -79 35 -94 36 -136 10z"/>
</g>
</svg>
